<svg width="1440" height="900" viewBox="0 0 1440 900" fill="none" xmlns="http://www.w3.org/2000/svg">
  <rect width="1440" height="900" fill="#0B1220"/>
  <rect x="32" y="32" width="1376" height="836" rx="28" fill="#111827" stroke="#243041" stroke-width="2"/>
  <rect x="64" y="64" width="340" height="772" rx="24" fill="#0F172A"/>
  <rect x="432" y="64" width="944" height="772" rx="24" fill="#111827"/>
  <text x="96" y="122" fill="#E5E7EB" font-size="34" font-family="Arial, Helvetica, sans-serif" font-weight="700">Configuration</text>
  <rect x="96" y="154" width="276" height="64" rx="16" fill="#172033" stroke="#314158"/>
  <text x="114" y="194" fill="#93C5FD" font-size="24" font-family="Arial, Helvetica, sans-serif">Gemini API Key</text>
  <text x="96" y="274" fill="#E5E7EB" font-size="30" font-family="Arial, Helvetica, sans-serif" font-weight="700">Upload Documents</text>
  <rect x="96" y="304" width="276" height="132" rx="20" fill="#172033" stroke="#314158" stroke-dasharray="10 8"/>
  <text x="130" y="366" fill="#CBD5E1" font-size="24" font-family="Arial, Helvetica, sans-serif">PDF, DOCX, TXT</text>
  <text x="130" y="400" fill="#64748B" font-size="20" font-family="Arial, Helvetica, sans-serif">Drop files here</text>
  <text x="96" y="494" fill="#E5E7EB" font-size="30" font-family="Arial, Helvetica, sans-serif" font-weight="700">RAG Settings</text>
  <rect x="96" y="526" width="276" height="30" rx="10" fill="#1E293B"/>
  <rect x="96" y="580" width="276" height="30" rx="10" fill="#1E293B"/>
  <rect x="96" y="634" width="276" height="30" rx="10" fill="#1E293B"/>
  <rect x="96" y="688" width="276" height="30" rx="10" fill="#1E293B"/>
  <rect x="96" y="754" width="276" height="56" rx="18" fill="#2563EB"/>
  <text x="132" y="790" fill="#F8FAFC" font-size="24" font-family="Arial, Helvetica, sans-serif" font-weight="700">Build Knowledge Base</text>
  <text x="472" y="126" fill="#F8FAFC" font-size="44" font-family="Arial, Helvetica, sans-serif" font-weight="700">DocMind - RAG Document Q&amp;A</text>
  <text x="472" y="172" fill="#94A3B8" font-size="24" font-family="Arial, Helvetica, sans-serif">Ask questions about uploaded documents and inspect grounded source chunks.</text>
  <rect x="472" y="228" width="272" height="152" rx="22" fill="#142033" stroke="#2E4A6A"/>
  <rect x="768" y="228" width="272" height="152" rx="22" fill="#142033" stroke="#2E4A6A"/>
  <rect x="1064" y="228" width="272" height="152" rx="22" fill="#142033" stroke="#2E4A6A"/>
  <text x="500" y="284" fill="#E2E8F0" font-size="26" font-family="Arial, Helvetica, sans-serif" font-weight="700">Step 1</text>
  <text x="500" y="322" fill="#93C5FD" font-size="22" font-family="Arial, Helvetica, sans-serif">Enter API key</text>
  <text x="796" y="284" fill="#E2E8F0" font-size="26" font-family="Arial, Helvetica, sans-serif" font-weight="700">Step 2</text>
  <text x="796" y="322" fill="#93C5FD" font-size="22" font-family="Arial, Helvetica, sans-serif">Upload files</text>
  <text x="1092" y="284" fill="#E2E8F0" font-size="26" font-family="Arial, Helvetica, sans-serif" font-weight="700">Step 3</text>
  <text x="1092" y="322" fill="#93C5FD" font-size="22" font-family="Arial, Helvetica, sans-serif">Build and ask</text>
  <rect x="472" y="424" width="864" height="188" rx="24" fill="#0F172A" stroke="#243041"/>
  <text x="504" y="470" fill="#F8FAFC" font-size="30" font-family="Arial, Helvetica, sans-serif" font-weight="700">Suggested questions</text>
  <text x="504" y="522" fill="#CBD5E1" font-size="22" font-family="Arial, Helvetica, sans-serif">- What are the main responsibilities described in this document?</text>
  <text x="504" y="558" fill="#CBD5E1" font-size="22" font-family="Arial, Helvetica, sans-serif">- Which sections mention employee leave or onboarding?</text>
  <text x="504" y="594" fill="#CBD5E1" font-size="22" font-family="Arial, Helvetica, sans-serif">- Compare the key points across the uploaded files.</text>
  <rect x="472" y="648" width="864" height="108" rx="24" fill="#0F172A" stroke="#243041"/>
  <text x="512" y="712" fill="#64748B" font-size="24" font-family="Arial, Helvetica, sans-serif">Ask anything about your documents...</text>
  <text x="64" y="878" fill="#64748B" font-size="18" font-family="Arial, Helvetica, sans-serif">Illustrated UI preview based on the Streamlit app layout</text>
</svg>
